<?xml version="1.0" standalone="no"?>
<!DOCTYPE svg PUBLIC "-//W3C//DTD SVG 20010904//EN"
 "http://www.w3.org/TR/2001/REC-SVG-20010904/DTD/svg10.dtd">
<svg version="1.0" xmlns="http://www.w3.org/2000/svg"
 width="512.000000pt" height="512.000000pt" viewBox="0 0 512.000000 512.000000"
 preserveAspectRatio="xMidYMid meet">
<metadata>
Created by potrace 1.14, written by Peter Selinger 2001-2017
</metadata>
<g transform="translate(0.000000,512.000000) scale(0.100000,-0.100000)"
fill="#000000" stroke="none">
<path d="M845 5105 c-366 -69 -668 -329 -788 -676 -59 -170 -57 -94 -54 -1904
3 -1784 0 -1681 52 -1830 121 -351 426 -614 790 -679 121 -21 3314 -22 3425 0
222 43 402 137 555 291 145 146 256 367 283 563 4 30 7 802 7 1715 l0 1660
-24 89 c-94 358 -344 626 -684 736 -158 51 -93 49 -1852 48 -1310 0 -1654 -3
-1710 -13z"/>
</g>
</svg>
